<svg width="20" height="25" viewBox="0 0 20 25" fill="none" xmlns="http://www.w3.org/2000/svg">
<path d="M5.32803 1.4253C5.58182 0.579336 6.36047 0 7.24368 0H14.7627C16.3044 0 17.2664 1.67094 16.4922 3.00427L13.8239 7.59979C13.7852 7.66645 13.8333 7.75 13.9103 7.75H17.1311C18.7285 7.75 19.6813 9.53029 18.7952 10.8594L15.9557 15.1187C15.8682 15.25 15.6824 15.2684 15.5709 15.1568L14.4892 14.0752C14.405 13.9909 14.3919 13.8589 14.458 13.7597L17.1311 9.75H13.7366C12.1949 9.75 11.2329 8.07906 12.0071 6.74573L14.6754 2.15021C14.7141 2.08355 14.666 2 14.589 2H7.42969C7.31929 2 7.22196 2.07242 7.19023 2.17816L6.24942 5.3142C6.19506 5.49539 5.96695 5.5529 5.83319 5.41914L4.62854 4.21449C4.5635 4.14946 4.53943 4.05397 4.56586 3.96588L5.32803 1.4253Z" fill="white"/>
<path fill-rule="evenodd" clip-rule="evenodd" d="M0.792893 4.79289C1.18342 4.40237 1.81658 4.40237 2.20711 4.79289L11.9921 14.5779L11.9999 14.5857L13.5938 16.1795L13.6017 16.1875L17.7071 20.2929C18.0976 20.6834 18.0976 21.3166 17.7071 21.7071C17.3166 22.0976 16.6834 22.0976 16.2929 21.7071L13.6081 19.0223L10.4324 23.2566C9.22045 24.8725 6.64989 23.8778 6.8414 21.867L7.40017 15.9999H3.85389C2.50828 15.9999 1.54661 14.6978 1.94234 13.4117L3.36708 8.78129L0.792893 6.20711C0.402369 5.81658 0.402369 5.18342 0.792893 4.79289ZM4.96725 10.3815L8.58568 13.9999H3.98929C3.92201 13.9999 3.87393 13.9348 3.89371 13.8705L4.96725 10.3815Z" fill="white"/>
</svg>
