<svg width="36" height="23" viewBox="0 0 36 23" fill="none" xmlns="http://www.w3.org/2000/svg">
<g filter="url(#filter0_d_731_10401)">
<path d="M4.99187 14L11.2319 -9.53674e-07H14.4319L20.6919 14H17.2919L12.1719 1.64H13.4519L8.31188 14H4.99187ZM8.11187 11L8.97188 8.54H16.1719L17.0519 11H8.11187ZM28.5244 14V11.9L28.3244 11.44V7.68C28.3244 7.01333 28.1177 6.49333 27.7044 6.12C27.3044 5.74667 26.6844 5.56 25.8444 5.56C25.271 5.56 24.7044 5.65333 24.1444 5.84C23.5977 6.01333 23.131 6.25333 22.7444 6.56L21.6244 4.38C22.211 3.96667 22.9177 3.64667 23.7444 3.42C24.571 3.19333 25.411 3.08 26.2644 3.08C27.9044 3.08 29.1777 3.46667 30.0844 4.24C30.991 5.01333 31.4444 6.22 31.4444 7.86V14H28.5244ZM25.2444 14.16C24.4044 14.16 23.6844 14.02 23.0844 13.74C22.4844 13.4467 22.0244 13.0533 21.7044 12.56C21.3844 12.0667 21.2244 11.5133 21.2244 10.9C21.2244 10.26 21.3777 9.7 21.6844 9.22C22.0044 8.74 22.5044 8.36667 23.1844 8.1C23.8644 7.82 24.751 7.68 25.8444 7.68H28.7044V9.5H26.1844C25.451 9.5 24.9444 9.62 24.6644 9.86C24.3977 10.1 24.2644 10.4 24.2644 10.76C24.2644 11.16 24.4177 11.48 24.7244 11.72C25.0444 11.9467 25.4777 12.06 26.0244 12.06C26.5444 12.06 27.011 11.94 27.4244 11.7C27.8377 11.4467 28.1377 11.08 28.3244 10.6L28.8044 12.04C28.5777 12.7333 28.1644 13.26 27.5644 13.62C26.9644 13.98 26.191 14.16 25.2444 14.16Z" fill="white"/>
</g>
<defs>
<filter id="filter0_d_731_10401" x="0.991882" y="0" width="34.4525" height="22.16" filterUnits="userSpaceOnUse" color-interpolation-filters="sRGB">
<feFlood flood-opacity="0" result="BackgroundImageFix"/>
<feColorMatrix in="SourceAlpha" type="matrix" values="0 0 0 0 0 0 0 0 0 0 0 0 0 0 0 0 0 0 127 0" result="hardAlpha"/>
<feOffset dy="4"/>
<feGaussianBlur stdDeviation="2"/>
<feComposite in2="hardAlpha" operator="out"/>
<feColorMatrix type="matrix" values="0 0 0 0 0 0 0 0 0 0 0 0 0 0 0 0 0 0 0.25 0"/>
<feBlend mode="normal" in2="BackgroundImageFix" result="effect1_dropShadow_731_10401"/>
<feBlend mode="normal" in="SourceGraphic" in2="effect1_dropShadow_731_10401" result="shape"/>
</filter>
</defs>
</svg>
